<?xml version="1.0" encoding="UTF-8"?>
<svg width="32px" height="32px" viewBox="0 0 32 32" version="1.1" xmlns="http://www.w3.org/2000/svg" xmlns:xlink="http://www.w3.org/1999/xlink">
    <title>32x32@1x</title>
    <g id="32x32" stroke="none" stroke-width="1" fill="none" fill-rule="evenodd">
        <path d="M25,5 C24.3617021,8.72 23.5053191,12.43 22.4308511,16.13 C21.356383,19.83 20.1808511,23.12 18.9042553,26 L13.0957447,26 C11.8404255,23.22 10.6755319,19.98 9.60106383,16.28 C8.52659574,12.58 7.65957447,8.82 7,5 L12.4574468,5 C13.0957447,8.6 13.7074468,11.685 14.2925532,14.255 C14.8776596,16.825 15.5212766,19.22 16.2234043,21.44 L15.7765957,21.44 C16.4787234,19.22 17.1223404,16.825 17.7074468,14.255 C18.2925532,11.685 18.9042553,8.6 19.5425532,5 L25,5 Z" id="Path" fill="#000000" fill-rule="nonzero"></path>
    </g>
</svg>